<?xml version="1.0" encoding="utf-8"?>
<!-- Generator: Adobe Illustrator 17.1.0, SVG Export Plug-In . SVG Version: 6.00 Build 0)  -->
<!DOCTYPE svg PUBLIC "-//W3C//DTD SVG 1.1//EN" "http://www.w3.org/Graphics/SVG/1.1/DTD/svg11.dtd">
<svg version="1.1" id="Layer_2" xmlns="http://www.w3.org/2000/svg" xmlns:xlink="http://www.w3.org/1999/xlink" x="0px" y="0px"
	 viewBox="0 0 80 14" enable-background="new 0 0 80 14" xml:space="preserve">
<g>
	<rect x="3" fill="#CE4B49" width="2" height="1"/>
	<rect x="3" y="1" fill="#F59596" width="2" height="1"/>
	<rect x="2" y="1" fill="#CE4B49" width="1" height="1"/>
	<rect x="5" y="1" fill="#CE4B49" width="1" height="1"/>
	<rect x="1" y="2" fill="#CE4B49" width="1" height="1"/>
	<rect x="2" y="2" fill="#BE2826" width="2" height="1"/>
	<rect x="4" y="2" fill="#FACBCB" width="6" height="1"/>
	<rect x="12" y="2" fill="#CE4B49" width="1" height="1"/>
	<rect x="10" y="2" fill="#BE2826" width="2" height="1"/>
	<rect x="9" fill="#CE4B49" width="2" height="1"/>
	<rect x="9" y="1" fill="#F59596" width="2" height="1"/>
	<rect x="8" y="1" fill="#CE4B49" width="1" height="1"/>
	<rect x="11" y="1" fill="#CE4B49" width="1" height="1"/>
	<rect y="3" fill="#CE4B49" width="1" height="1"/>
	<rect y="4" fill="#BE2826" width="1" height="5"/>
	<rect y="9" fill="#981C1F" width="1" height="1"/>
	<rect x="13" y="9" fill="#981C1F" width="1" height="1"/>
	<rect x="13" y="3" fill="#CE4B49" width="1" height="1"/>
	<rect x="13" y="4" fill="#BE2826" width="1" height="5"/>
	<rect x="1" y="3" fill="#F59596" width="12" height="7"/>
	<rect x="2" y="6" fill="#981C1F" width="1" height="2"/>
	<rect x="2" y="8" fill="#BE2826" width="1" height="1"/>
	<rect x="2" y="5" fill="#3D3D3D" width="2" height="1"/>
	<rect x="6" y="5" fill="#BE2826" width="2" height="1"/>
	<rect x="11" y="6" fill="#981C1F" width="1" height="2"/>
	<rect x="11" y="8" fill="#BE2826" width="1" height="1"/>
	<rect x="10" y="5" fill="#3D3D3D" width="2" height="1"/>
	<rect x="3" y="6" fill="#FFFFFF" width="8" height="1"/>
	<rect x="3" y="8" fill="#FFFFFF" width="8" height="1"/>
	<rect x="3" y="7" fill="#D1D1D2" width="1" height="1"/>
	<rect x="4" y="7" fill="#E9E9E9" width="6" height="1"/>
	<rect x="10" y="7" fill="#D1D1D2" width="1" height="1"/>
	<rect x="1" y="10" fill="#981C1F" width="12" height="1"/>
	<rect x="2" y="11" fill="#981C1F" width="1" height="2"/>
	<rect x="11" y="11" fill="#981C1F" width="1" height="2"/>
	<rect x="3" y="13" fill="#981C1F" width="2" height="1"/>
	<rect x="5" y="12" fill="#981C1F" width="4" height="1"/>
	<rect x="9" y="13" fill="#981C1F" width="2" height="1"/>
	<rect x="3" y="12" fill="#F59596" width="2" height="1"/>
	<rect x="9" y="12" fill="#F59596" width="2" height="1"/>
	<rect x="3" y="11" fill="#F59596" width="8" height="1"/>
	<rect x="17" y="7" fill="#363636" width="1" height="1"/>
	<rect x="18" y="8" fill="#363636" width="1" height="1"/>
	<rect x="19" y="9" fill="#363636" width="1" height="1"/>
	<rect x="20" y="10" fill="#363636" width="1" height="3"/>
	<rect x="18" y="6" fill="#363636" width="1" height="1"/>
	<rect x="19" y="5" fill="#363636" width="1" height="1"/>
	<rect x="20" y="2" fill="#363636" width="1" height="3"/>
	<rect x="21" y="1" fill="#363636" width="58" height="1"/>
	<rect x="21" y="13" fill="#363636" width="58" height="1"/>
	<rect x="79" y="2" fill="#363636" width="1" height="11"/>
	<rect x="21" y="2" fill="#FFFFFF" width="58" height="11"/>
	<g>
		<path fill="#363636" d="M26,7h-1V5h1V7z M28,5h1v4h-1V8h-2V7h2V5z M28,9v1h-2V9H28z"/>
		<path fill="#363636" d="M31,6V5h2v1h1v4h-1V9h-2v1h-1V6H31z M33,8V6h-2v2H33z"/>
		<path fill="#363636" d="M36,7h-1V5h1V7z M38,5h1v4h-1V8h-2V7h2V5z M38,9v1h-2V9H38z"/>
		<path fill="#363636" d="M47,5h1v5h-1V8h-2v2h-1V5h1v2h2V5z"/>
		<path fill="#363636" d="M50,9h-1V6h1V5h2v1h1v3h-1v1h-2V9z M52,9V6h-2v3H52z"/>
		<path fill="#363636" d="M55,9h-1V6h1V5h2v1h1v3h-1v1h-2V9z M57,9V6h-2v3H57z"/>
		<path fill="#363636" d="M63,10h-1V9h-2v1h-1V5h3v1h-2v2h2V6h1v2h-1v1h1V10z"/>
		<path fill="#363636" d="M65,6V5h2v1h1v4h-1V9h-2v1h-1V6H65z M67,8V6h-2v2H67z"/>
		<path fill="#363636" d="M70,7h-1V5h1V7z M72,5h1v4h-1V8h-2V7h2V5z M72,9v1h-2V9H72z"/>
		<path fill="#363636" d="M75,8h-1V5h1V8z M75,10h-1V9h1V10z"/>
	</g>
	<rect x="18" y="7" fill="#FFFFFF" width="1" height="1"/>
	<rect x="19" y="6" fill="#FFFFFF" width="1" height="3"/>
	<rect x="20" y="5" fill="#FFFFFF" width="1" height="5"/>
</g>
</svg>
